<?xml version="1.0" standalone="no"?>
<!DOCTYPE svg PUBLIC "-//W3C//DTD SVG 20010904//EN"
 "http://www.w3.org/TR/2001/REC-SVG-20010904/DTD/svg10.dtd">
<svg version="1.0" xmlns="http://www.w3.org/2000/svg"
 width="250.000000pt" height="250.000000pt" viewBox="0 0 250.000000 250.000000"
 preserveAspectRatio="xMidYMid meet">
<metadata>
Created by potrace 1.15, written by Peter Selinger 2001-2017
</metadata>
<g transform="translate(0.000000,250.000000) scale(0.100000,-0.100000)"
fill="#000000" stroke="none">
<path d="M1107 2493 c-4 -3 -17 -7 -30 -9 -12 -1 -22 -3 -22 -4 0 -2 -10 -4
-22 -5 -31 -3 -113 -35 -113 -44 0 -4 -15 -12 -32 -19 -18 -7 -52 -30 -76 -51
-24 -21 -62 -44 -85 -51 -168 -49 -309 -206 -354 -393 -20 -82 -21 -93 -28
-222 -13 -268 -19 -365 -29 -445 -3 -19 -7 -60 -10 -90 -6 -59 -12 -91 -26
-155 -4 -22 -14 -66 -21 -98 -7 -32 -16 -60 -21 -63 -5 -3 -6 -9 -3 -14 3 -5
-1 -26 -10 -46 -33 -79 -2 -241 59 -307 29 -32 91 -49 159 -45 l52 3 -30 29
-30 29 32 -17 c47 -24 190 -56 250 -56 l51 0 -19 -50 c-15 -39 -16 -55 -8 -74
9 -20 7 -37 -15 -93 -28 -74 -30 -83 -18 -83 4 0 20 37 36 83 48 135 93 214
138 238 20 11 21 10 15 -37 -6 -54 5 -84 31 -85 14 0 13 -3 -6 -16 -32 -22
-28 -51 10 -71 17 -9 46 -30 65 -47 37 -35 103 -140 103 -167 0 -11 7 -18 20
-18 17 0 18 4 10 25 -31 81 -89 156 -170 216 l-34 25 42 24 c23 13 42 27 42
32 0 4 0 11 0 16 0 4 -19 7 -43 7 -51 0 -56 13 -33 99 l17 61 58 23 c32 12 61
22 63 22 3 0 8 -24 11 -54 5 -54 18 -84 62 -144 32 -45 40 -123 25 -235 -7
-51 -15 -97 -17 -104 -4 -10 28 -13 145 -13 l149 0 5 143 c4 106 9 152 22 182
18 39 23 158 9 212 -4 17 -1 23 11 23 19 0 119 -55 134 -73 8 -10 52 -139 52
-153 0 -3 -22 -2 -50 2 -61 8 -67 -7 -15 -37 36 -21 43 -33 25 -44 -11 -7
-180 -241 -180 -249 0 -3 7 -6 15 -6 8 0 27 21 42 48 41 71 100 153 138 193
l35 37 -23 15 -22 16 23 0 c30 1 37 23 24 79 -6 26 -9 48 -7 50 6 6 47 -43 79
-93 18 -27 50 -93 71 -145 44 -107 43 -106 51 -97 4 3 -10 45 -31 93 -32 75
-35 90 -25 110 11 19 9 29 -14 70 -14 26 -25 48 -24 49 2 0 32 7 68 14 35 7
77 19 92 27 27 14 41 3 16 -12 -22 -14 36 -22 90 -13 68 10 107 30 169 84 l51
45 -8 -36 c-8 -35 -20 -49 -72 -81 -44 -27 -34 -36 32 -30 147 13 200 97 177
278 -2 20 -7 41 -11 48 -4 6 -4 16 -1 21 3 6 1 10 -5 10 -6 0 -10 6 -9 13 1 6
-1 19 -4 27 -36 85 -154 456 -162 511 -16 101 -23 162 -30 249 -13 160 -65
362 -123 476 -32 63 -115 179 -137 191 -7 5 -31 24 -52 43 -33 31 -62 51 -138
98 -11 7 -36 20 -55 29 -152 72 -204 83 -406 83 -88 0 -164 -3 -167 -7z m-173
-743 c9 -20 19 -25 47 -24 38 1 222 26 228 31 2 1 -8 12 -22 24 -44 34 -31 39
36 12 187 -77 243 -95 311 -100 94 -7 108 -16 49 -32 -50 -13 -123 -57 -131
-78 -7 -22 22 -15 92 22 101 52 196 46 240 -17 23 -33 20 -37 -18 -26 -44 14
-82 4 -117 -32 -39 -39 -41 -114 -5 -153 32 -34 85 -44 127 -23 18 9 34 16 36
16 10 0 1 -311 -11 -355 -24 -90 -66 -151 -137 -194 -38 -24 -48 -37 -58 -74
-12 -40 -19 -49 -70 -75 -146 -78 -264 -82 -407 -13 -75 36 -101 56 -189 144
-115 116 -155 184 -180 305 -20 99 -19 247 4 357 21 101 103 330 129 359 16
17 17 17 25 -15 5 -19 14 -45 21 -59z m35 -1053 c35 -31 44 -47 50 -87 l8 -50
-49 -24 c-26 -13 -48 -20 -48 -15 0 4 -7 6 -15 3 -8 -4 -15 -1 -15 6 0 6 -4 9
-9 5 -15 -9 -32 31 -26 62 5 29 25 118 31 141 5 16 19 8 73 -41z m143 -96 c45
-27 141 -51 203 -51 47 0 121 15 170 35 18 8 18 6 -2 -11 -21 -18 -22 -22 -11
-102 9 -71 8 -88 -5 -120 -9 -20 -20 -53 -25 -72 l-8 -35 -119 0 -119 0 -8 45
c-4 25 -17 56 -28 70 -35 43 -60 103 -60 147 0 25 -6 45 -14 50 -15 9 -28 63
-15 63 4 0 23 -9 41 -19z"/>
<path d="M894 1561 c-100 -43 -73 -196 37 -216 106 -20 168 114 89 190 -30 29
-90 41 -126 26z"/>
<path d="M1070 1043 c1 -55 81 -166 137 -189 96 -41 182 2 241 118 18 37 31
71 28 76 -3 5 -31 0 -63 -11 -47 -16 -74 -18 -143 -13 -47 3 -107 12 -134 21
-62 19 -66 19 -66 -2z"/>
</g>
</svg>
